<svg xmlns="http://www.w3.org/2000/svg" viewBox="0 0 100 100">
  <defs>
    <linearGradient id="grad" x1="0%" y1="0%" x2="100%" y2="100%">
      <stop offset="0%" style="stop-color:#1DB954;stop-opacity:1" />
      <stop offset="100%" style="stop-color:#1ed760;stop-opacity:1" />
    </linearGradient>
  </defs>
  <circle cx="50" cy="50" r="48" fill="url(#grad)"/>
  <g fill="#000">
    <path d="M72.5 45.5c-15-8.9-39.7-9.7-54-5.4-2.3.7-4.7-.6-5.4-2.9-.7-2.3.6-4.7 2.9-5.4 16.4-5 43.7-4 61 6.2 2.1 1.2 2.8 3.9 1.5 6-1.2 2.1-3.9 2.8-6 1.5z"/>
    <path d="M66.5 56.1c-1 1.7-3.2 2.3-4.9 1.3-12.5-7.7-31.5-9.9-46.3-5.4-1.9.6-3.9-.5-4.5-2.4-.6-1.9.5-3.9 2.4-4.5 16.9-5.2 37.9-2.7 52.1 6.2 1.7 1 2.2 3.2 1.2 4.8z"/>
    <path d="M61.3 66.4c-.8 1.4-2.6 1.8-4 1-10.9-6.7-24.7-8.2-40.9-4.5-1.6.4-3.1-.6-3.5-2.1-.4-1.6.6-3.1 2.1-3.5 17.7-4 33.1-2.3 45.4 5.2 1.3.8 1.8 2.5.9 3.9z"/>
  </g>
</svg>
